# File created by Blade
# Date/Time:  Wed Apr 08 17:04:14 2015
#---------------------------------------------------------
:version 1.10
:name HOM
:units
  mass 1.0
  length 1.000000
  angle deg
:documentation
     Acclaim Skeleton File
:root
   axis xyz
   order TX TY TZ RX RY RZ
   position 0.000000 0.000000 0.000000
   orientation 0 0 0
:bonedata
   begin
      id 1
      name Spine_dum
      direction 0.000000 1.000000 0.000000
      length 5.893853
      axis 0.0 0.0 0.0 xyz
   end
   begin
      id 2
      name LeftUpLeg_dum
      direction 1.000000 0.000000 0.000000
      length 3.697939
      axis 0.0 0.0 0.0 xyz
   end
   begin
      id 3
      name RightUpLeg_dum
      direction -1.000000 0.000000 0.000000
      length 3.697939
      axis 0.0 0.0 0.0 xyz
   end
   begin
      id 4
      name Spine
      direction 0.000000 1.000000 0.000000
      length 0.000000
      axis 0.0 0.0 0.0 xyz
      dof rx ry rz
   end
   begin
      id 5
      name Spine_dum1
      direction 0.000000 1.000000 0.000000
      length 16.447146
      axis 0.0 0.0 0.0 xyz
   end
   begin
      id 6
      name Spine_dum2
      direction 0.000000 1.000000 0.000000
      length 10.900383
      axis 0.0 0.0 0.0 xyz
   end
   begin
      id 7
      name Spine_dum3
      direction 0.000000 1.000000 0.000000
      length 10.900383
      axis 0.0 0.0 0.0 xyz
   end
   begin
      id 8
      name Head
      direction 0.000000 1.000000 0.000000
      length 4.527550
      axis 0.0 0.0 0.0 xyz
      dof rx ry rz
   end
   begin
      id 9
      name LeftShoulder
      direction 1.000000 0.000000 0.000000
      length 8.219464
      axis 0.0 0.0 -90.0 xyz
      dof rx ry rz
   end
   begin
      id 10
      name LeftArm
      direction 1.000000 0.000000 0.000000
      length 11.094937
      axis 0.0 0.0 -90.0 xyz
      dof rx ry rz
   end
   begin
      id 11
      name LeftForeArm
      direction 1.000000 0.000000 0.000000
      length 9.103875
      axis 0.0 0.0 -90.0 xyz
      dof ry rz rx
   end
   begin
      id 12
      name LeftHand
      direction 0.000000 0.000000 0.000000
      length 0.000000
      axis 0.0 0.0 -90.0 xyz
      dof rx ry rz
   end
   begin
      id 13
      name LeftHand_dum1
      direction 0.000000 0.000000 0.000000
      length 0.000000
      axis 0.0 0.0 -90.0 xyz
   end
   begin
      id 14
      name LeftHand_dum2
      direction 1.000000 0.000000 0.000000
      length 3.937000
      axis 0.0 0.0 -90.0 xyz
   end
   begin
      id 15
      name LeftHandThumb1
      direction 0.000000 0.000000 1.000000
      length 3.937000
      axis 0.0 0.0 -90.0 xyz
      dof rx rz ry
   end
   begin
      id 16
      name RightShoulder
      direction -1.000000 0.000000 0.000000
      length 8.219464
      axis 0.0 0.0 90.0 xyz
      dof rx ry rz
   end
   begin
      id 17
      name RightArm
      direction -1.000000 0.000000 0.000000
      length 11.094937
      axis 0.0 0.0 90.0 xyz
      dof rx ry rz
   end
   begin
      id 18
      name RightForeArm
      direction -1.000000 0.000000 0.000000
      length 9.103875
      axis 0.0 0.0 90.0 xyz
      dof ry rz rx
   end
   begin
      id 19
      name RightHand
      direction 0.000000 0.000000 0.000000
      length 0.000000
      axis 0.0 0.0 90.0 xyz
      dof rx ry rz
   end
   begin
      id 20
      name RightHand_dum1
      direction 0.000000 0.000000 0.000000
      length 0.000000
      axis 0.0 0.0 90.0 xyz
   end
   begin
      id 21
      name RightHand_dum2
      direction -1.000000 0.000000 0.000000
      length 3.937000
      axis 0.0 0.0 90.0 xyz
   end
   begin
      id 22
      name RightHandThumb1
      direction 0.000000 0.000000 1.000000
      length 3.937000
      axis 0.0 0.0 90.0 xyz
      dof rx rz ry
   end
   begin
      id 23
      name LeftUpLeg
      direction 0.000000 -1.000000 0.000000
      length 16.181467
      axis 0.0 0.0 0.0 xyz
      dof rx ry rz
   end
   begin
      id 24
      name LeftLeg
      direction 0.000000 -1.000000 0.000000
      length 16.501392
      axis 0.0 0.0 0.0 xyz
      dof rx ry rz
   end
   begin
      id 25
      name LeftFoot
      direction 0.000000 -0.258819 0.965926
      length 6.408245
      axis 15.0 0.0 0.0 xyz
      dof rx ry rz
   end
   begin
      id 26
      name LeftToeBase
      direction 0.000000 0.000000 1.000000
      length 2.952750
      axis 0.0 0.0 0.0 xyz
      dof rx ry rz
   end
   begin
      id 27
      name RightUpLeg
      direction 0.000000 -1.000000 0.000000
      length 16.181467
      axis 0.0 0.0 0.0 xyz
      dof rx ry rz
   end
   begin
      id 28
      name RightLeg
      direction 0.000000 -1.000000 0.000000
      length 16.501392
      axis 0.0 0.0 0.0 xyz
      dof rx ry rz
   end
   begin
      id 29
      name RightFoot
      direction 0.000000 -0.258819 0.965926
      length 6.408245
      axis 15.0 0.0 0.0 xyz
      dof rx ry rz
   end
   begin
      id 30
      name RightToeBase
      direction 0.000000 0.000000 1.000000
      length 2.952750
      axis 0.0 0.0 0.0 xyz
      dof rx ry rz
   end
:hierarchy
   begin
      root Spine_dum LeftUpLeg_dum RightUpLeg_dum
      Spine_dum Spine
      LeftUpLeg_dum LeftUpLeg
      RightUpLeg_dum RightUpLeg
      Spine Spine_dum1 Spine_dum2 Spine_dum3
      Spine_dum1 Head
      Spine_dum2 LeftShoulder
      Spine_dum3 RightShoulder
      LeftShoulder LeftArm
      LeftArm LeftForeArm
      LeftForeArm LeftHand
      LeftHand LeftHand_dum1 LeftHand_dum2
      LeftHand_dum1 LeftHandThumb1
      RightShoulder RightArm
      RightArm RightForeArm
      RightForeArm RightHand
      RightHand RightHand_dum1 RightHand_dum2
      RightHand_dum1 RightHandThumb1
      LeftUpLeg LeftLeg
      LeftLeg LeftFoot
      LeftFoot LeftToeBase
      RightUpLeg RightLeg
      RightLeg RightFoot
      RightFoot RightToeBase
   end

# File created by Blade
# Date/Time:  Wed Apr 08 17:04:22 2015
# Frame Rate: 120.000 fps
#------------------------------------------------------
:FULLY-SPECIFIED
:DEGREES
251
root 3.963359 36.008953 3.684368 -154.410856 -74.106181 178.204438
Spine -23.841087 -16.597191 -3.594515
Head 28.126878 -11.145318 -3.744757
LeftShoulder 11.288048 -14.397107 35.232976
LeftArm 101.731595 35.850452 -45.252189
LeftForeArm 18.993553 -0.000000 96.297601
LeftHand -22.536268 -0.000000 -3.566896
LeftHandThumb1 -26.253704 0.000000 33.147579
RightShoulder -6.067900 -53.952829 -29.868921
RightArm 56.142280 -6.267227 27.117053
RightForeArm 8.894989 -0.000000 126.214595
RightHand 1.169878 -0.000000 24.721724
RightHandThumb1 -24.326973 -0.000000 -32.862282
LeftUpLeg -25.326941 15.184805 -3.541574
LeftLeg 16.211110 -0.000000 -0.000000
LeftFoot -17.257522 13.420190 -15.293466
LeftToeBase 8.919841 -0.000000 -0.000000
RightUpLeg -31.802466 -0.505614 -10.251595
RightLeg 16.149159 -0.000000 -0.000000
RightFoot -8.660494 4.600006 18.266858
RightToeBase 12.469917 -0.000000 -0.000000
252
root 3.955221 36.008262 3.686385 -154.336037 -74.142659 178.181887
Spine -23.969642 -16.596169 -3.585214
Head 28.088527 -11.160721 -3.873957
LeftShoulder 11.274985 -14.273356 35.192818
LeftArm 101.725458 35.945213 -45.339286
LeftForeArm 19.225384 -0.000000 96.244638
LeftHand -22.365459 -0.000000 -3.743018
LeftHandThumb1 -26.253704 0.000000 33.147579
RightShoulder -6.055917 -53.947772 -29.784108
RightArm 56.057494 -6.144934 27.158225
RightForeArm 10.438519 -0.000000 125.850393
RightHand 1.404805 -0.000000 24.686618
RightHandThumb1 -24.326973 -0.000000 -32.862282
LeftUpLeg -25.371048 15.167947 -3.556710
LeftLeg 16.208126 -0.000000 -0.000000
LeftFoot -17.260433 13.387346 -15.308112
LeftToeBase 8.909959 -0.000000 -0.000000
RightUpLeg -31.844350 -0.520301 -10.258813
RightLeg 16.175975 -0.000000 -0.000000
RightFoot -8.692054 4.580509 18.291417
RightToeBase 12.500219 -0.000000 -0.000000
253
root 3.949982 36.007050 3.688135 -154.249584 -74.181136 178.177925
Spine -24.129439 -16.580041 -3.554056
Head 28.052248 -11.171035 -4.046583
LeftShoulder 11.301046 -14.119084 35.101040
LeftArm 101.781878 36.007057 -45.367795
LeftForeArm 19.482239 -0.000000 96.199166
LeftHand -22.340352 -0.000000 -3.934859
LeftHandThumb1 -26.253704 0.000000 33.147579
RightShoulder -6.055775 -53.984735 -29.729057
RightArm 56.023329 -5.986230 27.234092
RightForeArm 11.794482 -0.000000 125.579533
RightHand 1.719447 -0.000000 24.582408
RightHandThumb1 -24.326973 -0.000000 -32.862282
LeftUpLeg -25.461761 15.145691 -3.574089
LeftLeg 16.228683 -0.000000 -0.000000
LeftFoot -17.282206 13.378462 -15.286243
LeftToeBase 8.952767 -0.000000 -0.000000
RightUpLeg -31.923223 -0.524545 -10.268698
RightLeg 16.209505 -0.000000 -0.000000
RightFoot -8.729581 4.539919 18.312480
RightToeBase 12.448804 -0.000000 -0.000000
254
root 3.945269 36.005199 3.690159 -154.159618 -74.211193 178.171043
Spine -24.288233 -16.566803 -3.522016
Head 28.009593 -11.182261 -4.216780
LeftShoulder 11.339645 -13.946414 34.997035
LeftArm 101.849572 36.068468 -45.397439
LeftForeArm 19.650454 0.000000 96.141912
LeftHand -22.341853 -0.000000 -4.190754
LeftHandThumb1 -26.253704 0.000000 33.147579
RightShoulder -5.973928 -53.968048 -29.763203
RightArm 55.946089 -5.884687 27.369945
RightForeArm 12.985422 -0.000000 125.414475
RightHand 1.881712 0.000000 24.434215
RightHandThumb1 -24.326973 -0.000000 -32.862282
LeftUpLeg -25.559697 15.111177 -3.590920
LeftLeg 16.263650 -0.000000 -0.000000
LeftFoot -17.302024 13.382442 -15.283275
LeftToeBase 8.936653 -0.000000 -0.000000
RightUpLeg -32.010651 -0.569739 -10.261123
RightLeg 16.248841 -0.000000 -0.000000
RightFoot -8.749683 4.552487 18.306592
RightToeBase 12.455565 -0.000000 -0.000000
255
root 3.939581 36.003275 3.692249 -154.126018 -74.234156 178.191129
Spine -24.400825 -16.550002 -3.513864
Head 27.970780 -11.215161 -4.330254
LeftShoulder 11.279921 -13.800287 35.014128
LeftArm 101.929668 36.186404 -45.371110
LeftForeArm 19.816326 0.000000 96.098183
LeftHand -22.266662 0.000000 -4.051105
LeftHandThumb1 -26.253704 0.000000 33.147579
RightShoulder -5.892416 -53.976094 -29.763676
RightArm 55.853837 -5.732733 27.531929
RightForeArm 14.129219 0.000000 125.322181
RightHand 2.114913 -0.000000 24.194584
RightHandThumb1 -24.326973 -0.000000 -32.862282
LeftUpLeg -25.619313 15.055836 -3.579685
LeftLeg 16.299095 -0.000000 -0.000000
LeftFoot -17.345258 13.388268 -15.314555
LeftToeBase 8.967068 -0.000000 -0.000000
RightUpLeg -32.065427 -0.607523 -10.250648
RightLeg 16.282201 -0.000000 -0.000000
RightFoot -8.759479 4.581827 18.327225
RightToeBase 12.392236 -0.000000 -0.000000
256
root 3.933940 36.000657 3.694581 -154.140952 -74.233927 178.242535
Spine -24.485909 -16.485776 -3.524322
Head 27.956561 -11.291947 -4.459927
LeftShoulder 11.245079 -13.686299 35.025889
LeftArm 101.969914 36.331824 -45.374564
LeftForeArm 20.008747 0.000000 96.061531
LeftHand -22.196381 0.000000 -4.004474
LeftHandThumb1 -26.253704 0.000000 33.147579
RightShoulder -5.806319 -53.981355 -29.797111
RightArm 55.750974 -5.597509 27.782654
RightForeArm 15.472453 -0.000000 125.255931
RightHand 2.327725 -0.000000 24.057005
RightHandThumb1 -24.326973 -0.000000 -32.862282
LeftUpLeg -25.669376 15.038706 -3.573690
LeftLeg 16.350074 -0.000000 -0.000000
LeftFoot -17.390842 13.397687 -15.330403
LeftToeBase 8.955954 -0.000000 -0.000000
RightUpLeg -32.103627 -0.610927 -10.244525
RightLeg 16.302718 -0.000000 -0.000000
RightFoot -8.775889 4.584879 18.326138
RightToeBase 12.434902 -0.000000 -0.000000
